<svg xmlns="http://www.w3.org/2000/svg" width="11" height="15">
  <path d="M11 3.7516406v10.0608731c0 .2419299-.1893269.4374863-.4230769.4374863H.42307692C.18953846 14.25 0 14.0544436 0 13.8125137V.6881426C0 .4459939.18932692.25.42307692.25h7.1923077v.0015312-.0002187l3.38334618 3.4990156H11V3.7516406zM7.61538462 1.3284038v2.4217056h2.34215384L7.61538462 1.3284038zm2.53846158 3.2973345H6.76923077V1.1254101h-5.5c-.23353846 0-.42307692.1957752-.42307692.4377051v11.3742071c0 .2421487.18953846.437705.42307692.437705h8.46153846c.23353846 0 .42307697-.1955563.42307697-.437705v-8.311584zm-2.11538466 6.1239336H2.96153846c-.23353846 0-.42307692-.1955564-.42307692-.4372676 0-.2414925.18932692-.4377051.42307692-.4377051h5.07692308c.23375 0 .42307692.1962126.42307692.4377051.00021154.2417112-.18932692.4372676-.42307692.4372676zm0-2.6244805H2.96153846c-.23353846 0-.42307692-.1959939-.42307692-.4374863 0-.24193.18932692-.4377051.42307692-.4377051h5.07692308c.23375 0 .42307692.1957751.42307692.4377051.00021154.2414924-.18932692.4374863-.42307692.4374863z"/>
</svg>
