<svg xmlns="http://www.w3.org/2000/svg" width="14" height="14" fill="var(--gray)" fill-rule="evenodd">
  <path d="M0 7.177371c0 3.170997 2.005525 5.860858 4.787133 6.80991.350225.06609.477854-.155531.477854-.345871 0-.170071-.006016-.621686-.009454-1.220461-1.947083.43355-2.3579-.96227-2.3579-.96227-.318426-.829209-.777371-1.049949-.777371-1.049949-.635563-.445006.048129-.436194.048129-.436194.7026.050669 1.072163.739767 1.072163.739767.62439 1.096653 1.63854.779862 2.037324.596131.0636-.46351.244514-.779861.444336-.959185-1.554314-.181087-3.188557-.797045-3.188557-3.547269 0-.783387.272875-1.424459.720648-1.925862-.072194-.181527-.31241-.911601.068756-1.899426 0 0 .587433-.192982 1.924737.735802.558212-.159497 1.157248-.238805 1.752417-.241889.594739.003084 1.193345.082392 1.752417.241889 1.336444-.928784 1.923018-.735802 1.923018-.735802.382025.987825.141809 1.717899.070045 1.899426.448633.501403.719359 1.142475.719359 1.925862 0 2.757273-1.636821 3.363979-3.195862 3.541541.250959.221622.474846.659578.474846 1.32929 0 .959185-.008595 1.733319-.008595 1.968599 0 .192102.126339.415486.481292.345431C11.996194 13.035586 14 10.347486 14 7.177371 14 3.213294 10.865588 0 6.999355 0 3.134412 0 0 3.213294 0 7.177371z"/>
</svg>
