<svg xmlns="http://www.w3.org/2000/svg" width="11" height="15" viewBox="0 0 11 15">
  <path d="M11,88.7516406 L11,98.8125137 C11,99.0544436 10.8106731,99.25 10.5769231,99.25 L0.423076923,99.25 C0.189538462,99.25 0,99.0544436 0,98.8125137 L0,85.6881426 C0,85.4459939 0.189326923,85.25 0.423076923,85.25 L7.61538462,85.25 L7.61538462,85.2515312 L7.61538462,85.2513125 L10.9987308,88.7503281 L11,88.7503281 L11,88.7514218 L11,88.7516406 L11,88.7516406 Z M7.61538462,86.3284038 L7.61538462,88.7501094 L9.95753846,88.7501094 L7.61538462,86.3284038 Z M10.1538462,89.6257383 L7.61538462,89.6257383 L6.76923077,89.6257383 L6.76923077,88.7503281 L6.76923077,86.1254101 L1.26923077,86.1254101 C1.03569231,86.1254101 0.846153846,86.3211853 0.846153846,86.5631152 L0.846153846,97.9373223 C0.846153846,98.179471 1.03569231,98.3750273 1.26923077,98.3750273 L9.73076923,98.3750273 C9.96430769,98.3750273 10.1538462,98.179471 10.1538462,97.9373223 L10.1538462,89.6257383 Z M8.03846154,95.7496719 L2.96153846,95.7496719 C2.728,95.7496719 2.53846154,95.5541155 2.53846154,95.3124043 C2.53846154,95.0709118 2.72778846,94.8746992 2.96153846,94.8746992 L8.03846154,94.8746992 C8.27221154,94.8746992 8.46153846,95.0709118 8.46153846,95.3124043 C8.46175,95.5541155 8.27221154,95.7496719 8.03846154,95.7496719 Z M8.03846154,93.1251914 L2.96153846,93.1251914 C2.728,93.1251914 2.53846154,92.9291975 2.53846154,92.6877051 C2.53846154,92.4457751 2.72778846,92.25 2.96153846,92.25 L8.03846154,92.25 C8.27221154,92.25 8.46153846,92.4457751 8.46153846,92.6877051 C8.46175,92.9291975 8.27221154,93.1251914 8.03846154,93.1251914 Z" transform="translate(0 -85)"/>
</svg>
