<svg xmlns="http://www.w3.org/2000/svg" width="14" height="14" viewBox="0 0 14 14" fill="#999" fill-rule="evenodd">
  <path d="M723,656.177371 C723,659.348368 725.005525,662.038229 727.787133,662.987281 C728.137358,663.053371 728.264987,662.83175 728.264987,662.64141 C728.264987,662.471339 728.258971,662.019724 728.255533,661.420949 C726.30845,661.854499 725.897633,660.458679 725.897633,660.458679 C725.579207,659.62947 725.120262,659.40873 725.120262,659.40873 C724.484699,658.963724 725.168391,658.972536 725.168391,658.972536 C725.870991,659.023205 726.240554,659.712303 726.240554,659.712303 C726.864944,660.808956 727.879094,660.492165 728.277878,660.308434 C728.341478,659.844924 728.522392,659.528573 728.722214,659.349249 C727.1679,659.168162 725.533657,658.552204 725.533657,655.80198 C725.533657,655.018593 725.806532,654.377521 726.254305,653.876118 C726.182111,653.694591 725.941895,652.964517 726.323061,651.976692 C726.323061,651.976692 726.910494,651.78371 728.247798,652.712494 C728.80601,652.552997 729.405046,652.473689 730.000215,652.470605 C730.594954,652.473689 731.19356,652.552997 731.752632,652.712494 C733.089076,651.78371 733.67565,651.976692 733.67565,651.976692 C734.057675,652.964517 733.817459,653.694591 733.745695,653.876118 C734.194328,654.377521 734.465054,655.018593 734.465054,655.80198 C734.465054,658.559253 732.828233,659.165959 731.269192,659.343521 C731.520151,659.565143 731.744038,660.003099 731.744038,660.672811 C731.744038,661.631996 731.735443,662.40613 731.735443,662.64141 C731.735443,662.833512 731.861782,663.056896 732.216735,662.986841 C734.996194,662.035586 737,659.347486 737,656.177371 C737,652.213294 733.865588,649 729.999355,649 C726.134412,649 723,652.213294 723,656.177371 Z" transform="translate(-723 -649)"/>
</svg>
