<svg xmlns="http://www.w3.org/2000/svg" width="14" height="14" viewBox="0 0 14 14">
  <path fill="#FFF" fill-rule="evenodd" d="M10.2464594,9.4297584 L14,13.183299 L13.183299,14 L9.4297584,10.2464594 C8.43423203,11.0611253 7.1616696,11.5498969 5.77494844,11.5498969 C2.58553249,11.5498969 0,8.96436439 0,5.77494844 C0,2.58553249 2.58553249,0 5.77494844,0 C8.96436439,0 11.5498969,2.58553249 11.5498969,5.77494844 C11.5498969,7.1616696 11.0611253,8.43423203 10.2464594,9.4297584 Z M5.77494844,10.3949072 C8.3264812,10.3949072 10.3949072,8.3264812 10.3949072,5.77494844 C10.3949072,3.22341568 8.3264812,1.15498969 5.77494844,1.15498969 C3.22341568,1.15498969 1.15498969,3.22341568 1.15498969,5.77494844 C1.15498969,8.3264812 3.22341568,10.3949072 5.77494844,10.3949072 Z"/>
</svg>
